<svg xmlns="http://www.w3.org/2000/svg" viewBox="0 0 100 100">
  <defs>
    <linearGradient id="flame" x1="0%" y1="100%" x2="0%" y2="0%">
      <stop offset="0%" style="stop-color:#dc2626"/>
      <stop offset="50%" style="stop-color:#f97316"/>
      <stop offset="100%" style="stop-color:#fbbf24"/>
    </linearGradient>
  </defs>
  <!-- Flame shape -->
  <path fill="url(#flame)" d="M50 5 C35 25 20 35 20 55 C20 75 33 90 50 90 C67 90 80 75 80 55 C80 35 65 25 50 5 Z M50 75 C42 75 35 68 35 58 C35 48 42 40 50 30 C58 40 65 48 65 58 C65 68 58 75 50 75 Z"/>
  <!-- Inner heart/core -->
  <ellipse cx="50" cy="60" rx="12" ry="14" fill="#1f2937"/>
</svg>
