<?xml version="1.0" encoding="UTF-8"?>
<svg id="Layer_1" data-name="Layer 1" xmlns="http://www.w3.org/2000/svg" viewBox="0 0 364.83 512">
  <defs>
    <style>
      .cls-1 {
        fill: #ee9c37;
      }

      .cls-2 {
        fill: #ef9933;
      }

      .cls-3 {
        fill: #e5e4de;
      }

      .cls-4 {
        fill: #ee9a34;
      }

      .cls-5 {
        fill: #e15932;
      }

      .cls-6 {
        fill: #ef9c35;
      }

      .cls-7 {
        fill: #e45c2e;
      }

      .cls-8 {
        fill: #ef9a35;
      }
    </style>
  </defs>
  <path class="cls-4" d="M339.16,190.14l-2.72-11.56c-2.61-11.08-14.97-13.95-24.28-14.73,5.12-1.28,9.8-1.39,14.44-3.44,9.82-4.33,10.36-13.42,12.45-23.48,1.03,4.47,1.35,8.91,2.98,13.31,3.87,10.44,13.68,11.25,22.81,13.57-9.57,1.83-18.54,2.7-22.58,13.12-1.64,4.23-1.82,8.37-3.08,13.21Z"/>
  <path class="cls-2" d="M25.5,188.99c-1.48-5.3-1.45-10.14-3.67-15.03s-5.92-8.37-10.87-9.49l-10.96-2.47,9.77-2.17c12.1-2.68,14.41-15.43,15.57-25.25,1.23,6.36,1.79,12.15,4.9,17.43,4.59,7.79,13.86,8.2,22.2,10.01-4.36.85-8.72.87-13.08,2.44-11.41,4.1-12.04,14.32-13.86,24.53Z"/>
  <g>
    <path class="cls-8" d="M278.12,157.46c-1.85-7.29-2.67-13.72-4.84-20.24-6.47-19.45-23.28-22.88-42.07-25.88,17.46-2.86,32.68-3.88,40.65-22.46,3.31-7.72,4.23-15.86,6.11-24.52,3.3,16.95,4.34,35.16,24.05,42.1,7.09,2.5,14.15,3.45,21.97,4.48-17.19,3.04-33.31,5.46-40.39,23.89-2.82,7.36-3.45,14.68-5.48,22.63Z"/>
    <path class="cls-6" d="M237.23,84.17c-3.28-18.26-6.74-21.62-25.58-25.06,9.6-1.86,19.47-2.74,23-14.16,1.02-3.31,1.18-6.41,2.56-9.94l3.1,10.86c2.88,10.11,14.97,12.1,23.38,13.6-5.8.8-11.16,1.66-16.25,4.37-7.67,4.08-7.93,13.33-10.21,20.34Z"/>
  </g>
  <path class="cls-7" d="M82.06,136.11c-3.47-17.75-5.55-21.62-23.91-25.3,7.45-2.01,18.39-3.59,20.99-13.64l3.22-12.45,2.7,12.39c2.27,10.41,15.24,12.43,23.24,13.45-4.95,1.13-9.42,1.41-13.87,3.17-10.06,3.97-10.12,13.35-12.37,22.38Z"/>
  <g>
    <path class="cls-5" d="M210.99,509.54c18.95-6.89,37.07-15.9,53.01-30.3,53.21-48.08,59.81-121.05,30.82-183.56-7.09,19.23-28.56,36.07-48.8,27.76-15.15-6.22-14.24-20.89-15.29-34.95-1.33-17.9-5.77-34.81-13.51-50.93-13.33-27.8-32.71-51.93-58.52-70.48,5.06,14.98,10.19,28.21,12.95,43.18,5.71,30.97,4.69,69.99-16.49,94.69-6.9,8.05-15.55,13.62-25.92,14.95-14.61,1.87-27.95-5.73-33.11-19.22-5.66-14.78-2.84-31.03.03-46.93-12.15,14.82-21.29,31.27-28.98,48.75-22.75,51.73-20.01,110.86,14.65,156.63,17.6,23.24,41.46,40.31,69.07,49.13.66.21,1.21-.38,1.46.29.11.29.44.58.13.97-31.78-5.83-61.23-20.46-85.23-43.03C17.96,420.1-3.15,349,21.61,284.31c6.65-17.39,15.42-33.02,25.69-48.72,18.08-27.66,29.91-45.96,31.34-79.62,7.78,9.75,12.83,19.78,18.53,29.62.22.38.14,1.15.82.71,12.67,25.36,23.32,51.17,28.9,79.98,11.18-9.93,14.09-27.84,11.85-40.1-.54-2.96-.06-6.57-1.5-9.42-.32-.71.41-2.01-.61-2.17-1.67-8.84-5.07-17.02-8.15-26.14-9.9-29.33-11.76-59.99-2.82-89.88C139.35,52.81,172.09,14.58,218.41,0c-27.21,26.36-39.18,69.57-24.2,105.16,4.95,11.76,11.24,22.08,19.37,31.62l22.98,26.94c7.11,8.33,13.05,16.97,18.5,26.45,16.67,29,13,59.25,3.08,90.87,26.24-11.45,45.05-33.22,46.55-62.81.6-11.78-1.16-22.49-3.48-34.64,23.4,25.23,40.83,66.52,48.08,100.58,7.02,32.96,6.62,66.55-1.79,98.78-16.82,64.48-71.8,115.07-136.53,126.59Z"/>
    <path class="cls-1" d="M210.99,509.54c-8.63,3.14-19.13,1.34-28.01,2.35l25.82-22.47c13.29-11.57,25.73-23.41,37.69-36.42,14.51-15.78,30.52-36.81,33.58-58.63,2.43-17.35-4.1-34.69-16.92-45.67-13.28-11.37-31.52-15.81-48.36-10.21-15.45,5.13-26.63,17.28-32.66,31.8-7.69-18.81-24.9-32.85-45.65-34.02-30.54-1.72-54.7,24.3-52.39,54.56.91,11.99,5.23,22.6,11.51,32.83,17.41,28.34,54.07,61.21,79.93,83.1,2.32,1.97,4.19,3.33,5.67,5.24-9.54.06-19.28-.77-28.71-2.5.31-.38-.02-.67-.13-.97-.25-.66-.8-.08-1.46-.29-27.62-8.82-51.48-25.89-69.07-49.13-34.65-45.77-37.4-104.9-14.65-156.63,7.69-17.49,16.83-33.93,28.98-48.75-2.86,15.9-5.68,32.15-.03,46.93,5.16,13.49,18.5,21.09,33.11,19.22,10.37-1.33,19.01-6.9,25.92-14.95,21.18-24.69,22.2-63.72,16.49-94.69-2.76-14.97-7.89-28.2-12.95-43.18,25.81,18.55,45.19,42.68,58.52,70.48,7.74,16.13,12.17,33.03,13.51,50.93,1.05,14.05.14,28.73,15.29,34.95,20.23,8.31,41.71-8.52,48.8-27.76,28.98,62.51,22.39,135.48-30.82,183.56-15.94,14.4-34.06,23.41-53.01,30.3Z"/>
    <path class="cls-3" d="M182.98,511.89c-.59.07-1.18.1-1.77.1-1.48-1.92-3.35-3.28-5.67-5.24-25.86-21.89-62.52-54.76-79.93-83.1-6.28-10.23-10.6-20.84-11.51-32.83-2.31-30.26,21.85-56.28,52.39-54.56,20.75,1.17,37.96,15.2,45.65,34.02,6.03-14.52,17.21-26.67,32.66-31.8,16.84-5.59,35.08-1.16,48.36,10.21,12.82,10.98,19.34,28.32,16.92,45.67-3.05,21.82-19.06,42.85-33.58,58.63-11.96,13.01-24.39,24.85-37.69,36.42l-25.82,22.47Z"/>
    <path class="cls-3" d="M97.99,186.3c-.68.43-.6-.33-.82-.71.67-.2.73.25.82.71Z"/>
    <path class="cls-3" d="M137.24,216.76c-.37-.73-.4-1.09-.61-2.17,1.01.16.29,1.46.61,2.17Z"/>
  </g>
</svg>